<?xml version="1.0" encoding="utf-8"?>
<!-- Generator: Adobe Illustrator 18.0.0, SVG Export Plug-In . SVG Version: 6.00 Build 0)  -->
<!DOCTYPE svg PUBLIC "-//W3C//DTD SVG 1.1//EN" "http://www.w3.org/Graphics/SVG/1.1/DTD/svg11.dtd">
<svg version="1.1" id="Layer_1" xmlns="http://www.w3.org/2000/svg" xmlns:xlink="http://www.w3.org/1999/xlink" x="0px" y="0px"
	 viewBox="0 0 595.3 841.9" enable-background="new 0 0 595.3 841.9" xml:space="preserve">
<path fill="#034EA2" d="M122.6,298.6c-15.8,1.2-28.9,10.8-35.3,24.1c6.8-10,18-17,31-18c22.8-1.8,42.7,15.3,44.5,38.1
	c1.2,15-5.8,28.7-17.1,36.8c14.9-7.7,24.5-23.8,23.1-41.5C166.9,314.4,146.3,296.8,122.6,298.6z"/>
<path fill="#034EA2" d="M122.1,315.9c-12.4-0.8-23.5,5.8-29.1,16c5.8-6.7,14.6-10.8,24.1-10.2c16.2,1,28.6,15,27.6,31.2
	c-0.6,9.6-5.7,17.8-13,22.7c10.8-4.3,18.7-14.5,19.5-26.9C152.2,331.6,139.2,316.9,122.1,315.9z"/>
<path fill="#034EA2" d="M113.8,333.1c-7.9,0-14.7,4.6-18,11.3c3.5-3.9,8.5-6.4,14.2-6.4c10.6,0,19.2,8.5,19.3,19.1
	c0,5.6-2.4,10.7-6.3,14.2c6.6-3.3,11.1-10.2,11.1-18.1C134.1,342,125,333,113.8,333.1z"/>
<path fill="#034EA2" d="M82.4,335.1c0.7,29.3,17.2,45.6,49.8,49.6H82.4V335.1z"/>
<path fill="#034EA2" d="M109.8,346.7c-4.2-0.2-7.9,2-9.8,5.5c1.8-1.6,4.3-2.6,6.9-2.5c5.3,0.3,9.5,4.8,9.2,10.1
	c-0.2,3.3-1.9,6.1-4.5,7.7c4.5-1,8-4.9,8.2-9.8C120.1,351.9,115.6,347,109.8,346.7z"/>
</svg>
