<?xml version="1.0" encoding="utf-8"?>
<!-- Generator: Adobe Illustrator 18.0.0, SVG Export Plug-In . SVG Version: 6.00 Build 0)  -->
<!DOCTYPE svg PUBLIC "-//W3C//DTD SVG 1.1//EN" "http://www.w3.org/Graphics/SVG/1.1/DTD/svg11.dtd">
<svg version="1.1" id="Layer_1" xmlns="http://www.w3.org/2000/svg" xmlns:xlink="http://www.w3.org/1999/xlink" x="0px" y="0px"
	 viewBox="0 0 595.3 841.9" enable-background="new 0 0 595.3 841.9" xml:space="preserve">
<path fill="#034EA2" d="M122.6,298.6c-15.8,1.2-28.9,10.8-35.3,24.1c6.8-10,18-17,31-18c22.8-1.8,42.7,15.3,44.5,38.1
	c1.2,15-5.8,28.7-17.1,36.8c14.9-7.7,24.5-23.8,23.1-41.5C166.9,314.4,146.3,296.8,122.6,298.6z"/>
<path fill="#034EA2" d="M122.1,315.9c-12.4-0.8-23.5,5.8-29.1,16c5.8-6.7,14.6-10.8,24.1-10.2c16.2,1,28.6,15,27.6,31.2
	c-0.6,9.6-5.7,17.8-13,22.7c10.8-4.3,18.7-14.5,19.5-26.9C152.2,331.6,139.2,316.9,122.1,315.9z"/>
<path fill="#034EA2" d="M113.8,333.1c-7.9,0-14.7,4.6-18,11.3c3.5-3.9,8.5-6.4,14.2-6.4c10.6,0,19.2,8.5,19.3,19.1
	c0,5.6-2.4,10.7-6.3,14.2c6.6-3.3,11.1-10.2,11.1-18.1C134.1,342,125,333,113.8,333.1z"/>
<path fill="#034EA2" d="M82.4,335.1c0.7,29.3,17.2,45.6,49.8,49.6H82.4V335.1z"/>
<polygon fill="#034EA2" points="179.1,333.7 193.9,333.7 199.2,361.8 207,333.7 221.7,333.7 229.5,361.8 234.8,333.7 249.5,333.7 
	238.4,384 223.2,384 214.3,352.3 205.6,384 190.3,384 "/>
<path fill="#034EA2" d="M292.4,369.3h-28c0.2,2.2,0.9,3.9,1.8,5c1.3,1.6,3.1,2.4,5.3,2.4c1.4,0,2.7-0.3,3.9-1
	c0.8-0.4,1.6-1.2,2.4-2.3l13.8,1.3c-2.1,3.7-4.6,6.3-7.6,7.9c-3,1.6-7.2,2.4-12.8,2.4c-4.8,0-8.6-0.7-11.4-2
	c-2.8-1.4-5.1-3.5-6.9-6.5c-1.8-3-2.7-6.5-2.7-10.5c0-5.7,1.8-10.3,5.5-13.8c3.6-3.5,8.7-5.3,15.1-5.3c5.2,0,9.3,0.8,12.4,2.4
	c3,1.6,5.3,3.9,6.9,6.9c1.6,3,2.4,6.9,2.4,11.7V369.3z M278.1,362.5c-0.3-2.7-1-4.6-2.2-5.8c-1.2-1.2-2.7-1.7-4.6-1.7
	c-2.2,0-4,0.9-5.3,2.6c-0.8,1.1-1.4,2.7-1.6,4.9H278.1z"/>
<path fill="#034EA2" d="M296.3,373.9l13.9-1.3c0.6,1.7,1.4,2.8,2.4,3.6c1,0.7,2.4,1.1,4.1,1.1c1.9,0,3.3-0.4,4.4-1.2
	c0.8-0.6,1.2-1.3,1.2-2.2c0-1-0.5-1.8-1.6-2.3c-0.8-0.4-2.8-0.9-6-1.4c-4.8-0.8-8.2-1.6-10.1-2.4c-1.9-0.7-3.5-1.9-4.8-3.7
	c-1.3-1.7-1.9-3.7-1.9-5.9c0-2.4,0.7-4.5,2.1-6.2c1.4-1.7,3.3-3,5.8-3.9c2.4-0.9,5.7-1.3,9.8-1.3c4.3,0,7.5,0.3,9.6,1
	c2.1,0.7,3.8,1.7,5.2,3.1c1.4,1.4,2.5,3.3,3.4,5.7l-13.2,1.3c-0.3-1.2-0.9-2-1.7-2.6c-1.1-0.7-2.4-1.1-4-1.1c-1.6,0-2.7,0.3-3.4,0.8
	c-0.7,0.6-1.1,1.2-1.1,2c0,0.9,0.5,1.6,1.4,2c0.9,0.5,2.9,0.9,6,1.2c4.6,0.5,8.1,1.3,10.4,2.2c2.3,0.9,4,2.3,5.2,4
	c1.2,1.7,1.8,3.6,1.8,5.7c0,2.1-0.6,4.2-1.9,6.1c-1.3,2-3.3,3.6-6,4.8c-2.7,1.2-6.5,1.8-11.2,1.8c-6.7,0-11.4-1-14.2-2.9
	C298.9,380.1,297.1,377.4,296.3,373.9"/>
<path fill="#034EA2" d="M358.5,333.7v13.9h7.7v10.2h-7.7v12.9c0,1.6,0.1,2.6,0.4,3.1c0.5,0.8,1.3,1.2,2.4,1.2c1,0,2.5-0.3,4.3-0.9
	l1,9.6c-3.5,0.8-6.7,1.1-9.7,1.1c-3.5,0-6-0.4-7.7-1.3c-1.6-0.9-2.9-2.2-3.7-4.1c-0.8-1.8-1.2-4.8-1.2-8.8v-12.8h-5.2v-10.2h5.2
	v-6.7L358.5,333.7z"/>
<path fill="#034EA2" d="M407.3,363.4l13.6,4.1c-0.9,3.8-2.4,7-4.3,9.6c-2,2.6-4.4,4.5-7.3,5.8c-2.9,1.3-6.6,2-11.1,2
	c-5.5,0-9.9-0.8-13.4-2.4c-3.5-1.6-6.5-4.4-9-8.4c-2.5-4-3.8-9.1-3.8-15.4c0-8.3,2.2-14.7,6.6-19.2c4.4-4.5,10.7-6.7,18.8-6.7
	c6.3,0,11.3,1.3,14.9,3.8c3.6,2.6,6.3,6.5,8.1,11.8l-13.7,3.1c-0.5-1.5-1-2.7-1.5-3.4c-0.9-1.2-1.9-2.1-3.2-2.7
	c-1.3-0.6-2.7-1-4.2-1c-3.5,0-6.2,1.4-8.1,4.2c-1.4,2.1-2.1,5.4-2.1,9.9c0,5.6,0.8,9.4,2.5,11.4c1.7,2.1,4.1,3.1,7.1,3.1
	c3,0,5.2-0.8,6.7-2.5C405.6,369,406.7,366.6,407.3,363.4"/>
<path fill="#034EA2" d="M440.3,359.3l-13.3-1.4c0.5-2.3,1.2-4.2,2.2-5.5c0.9-1.3,2.3-2.5,4.1-3.5c1.3-0.7,3-1.3,5.3-1.6
	c2.2-0.4,4.7-0.6,7.3-0.6c4.2,0,7.6,0.2,10.1,0.7c2.5,0.5,4.7,1.5,6.4,2.9c1.2,1,2.1,2.5,2.8,4.4c0.7,1.9,1,3.7,1,5.4v16.1
	c0,1.7,0.1,3.1,0.3,4c0.2,1,0.7,2.2,1.4,3.7h-13.1c-0.5-0.9-0.9-1.7-1-2.1c-0.2-0.5-0.3-1.3-0.5-2.3c-1.8,1.8-3.7,3-5.5,3.8
	c-2.5,1-5.4,1.5-8.6,1.5c-4.4,0-7.7-1-9.9-3c-2.3-2-3.4-4.5-3.4-7.5c0-2.8,0.8-5.1,2.4-6.8c1.6-1.8,4.6-3.1,9-4
	c5.2-1.1,8.7-1.8,10.2-2.2c1.6-0.4,3.2-1,5-1.7c0-1.7-0.4-2.9-1.1-3.6c-0.7-0.7-2-1-3.8-1c-2.3,0-4,0.4-5.2,1.1
	C441.6,356.7,440.8,357.8,440.3,359.3 M452.5,366.7c-1.9,0.7-3.9,1.3-6,1.8c-2.9,0.8-4.7,1.5-5.4,2.2c-0.8,0.8-1.2,1.6-1.2,2.6
	c0,1.1,0.4,2,1.2,2.7c0.8,0.7,1.9,1,3.4,1c1.6,0,3-0.4,4.4-1.1c1.3-0.8,2.3-1.7,2.9-2.8c0.6-1.1,0.8-2.5,0.8-4.3V366.7z"/>
<rect x="475" y="333.7" fill="#034EA2" width="14" height="50.3"/>
<rect x="498.4" y="333.7" fill="#034EA2" width="14" height="50.3"/>
<polygon fill="#034EA2" points="179.1,333.7 193.9,333.7 199.2,361.8 207,333.7 221.7,333.7 229.5,361.8 234.8,333.7 249.5,333.7 
	238.4,384 223.2,384 214.3,352.3 205.6,384 190.3,384 "/>
<path fill="#034EA2" d="M292.4,369.3h-28c0.2,2.2,0.9,3.9,1.8,5c1.3,1.6,3.1,2.4,5.3,2.4c1.4,0,2.7-0.3,3.9-1
	c0.8-0.4,1.6-1.2,2.4-2.3l13.8,1.3c-2.1,3.7-4.6,6.3-7.6,7.9c-3,1.6-7.2,2.4-12.8,2.4c-4.8,0-8.6-0.7-11.4-2
	c-2.8-1.4-5.1-3.5-6.9-6.5c-1.8-3-2.7-6.5-2.7-10.5c0-5.7,1.8-10.3,5.5-13.8c3.6-3.5,8.7-5.3,15.1-5.3c5.2,0,9.3,0.8,12.4,2.4
	c3,1.6,5.3,3.9,6.9,6.9c1.6,3,2.4,6.9,2.4,11.7V369.3z M278.1,362.5c-0.3-2.7-1-4.6-2.2-5.8c-1.2-1.2-2.7-1.7-4.6-1.7
	c-2.2,0-4,0.9-5.3,2.6c-0.8,1.1-1.4,2.7-1.6,4.9H278.1z"/>
<path fill="#034EA2" d="M296.3,373.9l13.9-1.3c0.6,1.7,1.4,2.8,2.4,3.6c1,0.7,2.4,1.1,4.1,1.1c1.9,0,3.3-0.4,4.4-1.2
	c0.8-0.6,1.2-1.3,1.2-2.2c0-1-0.5-1.8-1.6-2.3c-0.8-0.4-2.8-0.9-6-1.4c-4.8-0.8-8.2-1.6-10.1-2.4c-1.9-0.7-3.5-1.9-4.8-3.7
	c-1.3-1.7-1.9-3.7-1.9-5.9c0-2.4,0.7-4.5,2.1-6.2c1.4-1.7,3.3-3,5.8-3.9c2.4-0.9,5.7-1.3,9.8-1.3c4.3,0,7.5,0.3,9.6,1
	c2.1,0.7,3.8,1.7,5.2,3.1c1.4,1.4,2.5,3.3,3.4,5.7l-13.2,1.3c-0.3-1.2-0.9-2-1.7-2.6c-1.1-0.7-2.4-1.1-4-1.1c-1.6,0-2.7,0.3-3.4,0.8
	c-0.7,0.6-1.1,1.2-1.1,2c0,0.9,0.5,1.6,1.4,2c0.9,0.5,2.9,0.9,6,1.2c4.6,0.5,8.1,1.3,10.4,2.2c2.3,0.9,4,2.3,5.2,4
	c1.2,1.7,1.8,3.6,1.8,5.7c0,2.1-0.6,4.2-1.9,6.1c-1.3,2-3.3,3.6-6,4.8c-2.7,1.2-6.5,1.8-11.2,1.8c-6.7,0-11.4-1-14.2-2.9
	C298.9,380.1,297.1,377.4,296.3,373.9"/>
<path fill="#034EA2" d="M358.5,333.7v13.9h7.7v10.2h-7.7v12.9c0,1.6,0.1,2.6,0.4,3.1c0.5,0.8,1.3,1.2,2.4,1.2c1,0,2.5-0.3,4.3-0.9
	l1,9.6c-3.5,0.8-6.7,1.1-9.7,1.1c-3.5,0-6-0.4-7.7-1.3c-1.6-0.9-2.9-2.2-3.7-4.1c-0.8-1.8-1.2-4.8-1.2-8.8v-12.8h-5.2v-10.2h5.2
	v-6.7L358.5,333.7z"/>
<path fill="#034EA2" d="M407.3,363.4l13.6,4.1c-0.9,3.8-2.4,7-4.3,9.6c-2,2.6-4.4,4.5-7.3,5.8c-2.9,1.3-6.6,2-11.1,2
	c-5.5,0-9.9-0.8-13.4-2.4c-3.5-1.6-6.5-4.4-9-8.4c-2.5-4-3.8-9.1-3.8-15.4c0-8.3,2.2-14.7,6.6-19.2c4.4-4.5,10.7-6.7,18.8-6.7
	c6.3,0,11.3,1.3,14.9,3.8c3.6,2.6,6.3,6.5,8.1,11.8l-13.7,3.1c-0.5-1.5-1-2.7-1.5-3.4c-0.9-1.2-1.9-2.1-3.2-2.7
	c-1.3-0.6-2.7-1-4.2-1c-3.5,0-6.2,1.4-8.1,4.2c-1.4,2.1-2.1,5.4-2.1,9.9c0,5.6,0.8,9.4,2.5,11.4c1.7,2.1,4.1,3.1,7.1,3.1
	c3,0,5.2-0.8,6.7-2.5C405.6,369,406.7,366.6,407.3,363.4"/>
<path fill="#034EA2" d="M440.3,359.3l-13.3-1.4c0.5-2.3,1.2-4.2,2.2-5.5c0.9-1.3,2.3-2.5,4.1-3.5c1.3-0.7,3-1.3,5.3-1.6
	c2.2-0.4,4.7-0.6,7.3-0.6c4.2,0,7.6,0.2,10.1,0.7c2.5,0.5,4.7,1.5,6.4,2.9c1.2,1,2.1,2.5,2.8,4.4c0.7,1.9,1,3.7,1,5.4v16.1
	c0,1.7,0.1,3.1,0.3,4c0.2,1,0.7,2.2,1.4,3.7h-13.1c-0.5-0.9-0.9-1.7-1-2.1c-0.2-0.5-0.3-1.3-0.5-2.3c-1.8,1.8-3.7,3-5.5,3.8
	c-2.5,1-5.4,1.5-8.6,1.5c-4.4,0-7.7-1-9.9-3c-2.3-2-3.4-4.5-3.4-7.5c0-2.8,0.8-5.1,2.4-6.8c1.6-1.8,4.6-3.1,9-4
	c5.2-1.1,8.7-1.8,10.2-2.2c1.6-0.4,3.2-1,5-1.7c0-1.7-0.4-2.9-1.1-3.6c-0.7-0.7-2-1-3.8-1c-2.3,0-4,0.4-5.2,1.1
	C441.6,356.7,440.8,357.8,440.3,359.3 M452.5,366.7c-1.9,0.7-3.9,1.3-6,1.8c-2.9,0.8-4.7,1.5-5.4,2.2c-0.8,0.8-1.2,1.6-1.2,2.6
	c0,1.1,0.4,2,1.2,2.7c0.8,0.7,1.9,1,3.4,1c1.6,0,3-0.4,4.4-1.1c1.3-0.8,2.3-1.7,2.9-2.8c0.6-1.1,0.8-2.5,0.8-4.3V366.7z"/>
<rect x="475" y="333.7" fill="#034EA2" width="14" height="50.3"/>
<rect x="498.4" y="333.7" fill="#034EA2" width="14" height="50.3"/>
<path fill="#034EA2" d="M109.8,346.7c-4.2-0.2-7.9,2-9.8,5.5c1.8-1.6,4.3-2.6,6.9-2.5c5.3,0.3,9.5,4.8,9.2,10.1
	c-0.2,3.3-1.9,6.1-4.5,7.7c4.5-1,8-4.9,8.2-9.8C120.1,351.9,115.6,347,109.8,346.7z"/>
</svg>
